HIERARCHY
ROOT pelvis
{
	OFFSET 0.000000 0.000000 0.000000
	CHANNELS 6 Xposition Yposition Zposition Zrotation Xrotation Yrotation
	JOINT lfemur
	{
		OFFSET 11.446000 0.000000 0.000000
		CHANNELS 3 Zrotation Xrotation Yrotation
		JOINT ltibia
		{
			OFFSET 0.000000 -42.030400 0.000000
			CHANNELS 3 Zrotation Xrotation Yrotation
			JOINT lfoot
			{
				OFFSET 0.000000 -39.930200 0.000000
				CHANNELS 3 Zrotation Xrotation Yrotation
				JOINT ltoes
				{
					OFFSET 0.000000 0.000000 11.775800
					CHANNELS 3 Zrotation Xrotation Yrotation
					End Site
					{
					    OFFSET 0.000000 0.000000 5.000000
					}
				}
			}
		}
	}
	JOINT rfemur
	{
		OFFSET -11.446000 0.000000 0.000000
		CHANNELS 3 Zrotation Xrotation Yrotation
		JOINT rtibia
		{
			OFFSET 0.000000 -42.030400 0.000000
			CHANNELS 3 Zrotation Xrotation Yrotation
			JOINT rfoot
			{
				OFFSET 0.000000 -39.930200 0.000000
				CHANNELS 3 Zrotation Xrotation Yrotation
				JOINT rtoes
				{
					OFFSET 0.000000 0.000000 11.775800
					CHANNELS 3 Zrotation Xrotation Yrotation
					End Site
					{
					    OFFSET 0.000000 0.000000 5.000000
					}
				}
			}
		}
	}
	JOINT thorax
	{
		OFFSET 0.000000 11.255600 -5.000000
		CHANNELS 3 Zrotation Xrotation Yrotation
		JOINT head
		{
			OFFSET 0.000000 43.799300 0.000000
			CHANNELS 3 Zrotation Xrotation Yrotation
			End Site
			{
			    OFFSET 0.000000 5.000000 0.000000
			}
		}
		JOINT lclavicle
		{
			OFFSET 0.000000 39.863000 0.000000
			CHANNELS 3 Zrotation Xrotation Yrotation
			JOINT lhumerus
			{
				OFFSET 17.380600 4.958300 0.000000
				CHANNELS 3 Zrotation Xrotation Yrotation
				JOINT lradius
				{
					OFFSET 0.000000 -27.561300 0.000000
					CHANNELS 3 Zrotation Xrotation Yrotation
					JOINT lhand
					{
						OFFSET 0.000000 -26.933000 0.000000
						CHANNELS 3 Zrotation Xrotation Yrotation
						End Site
						{
						    OFFSET 0.000000 -5.000000 0.000000
						}
					}
				}
			}
		}
		JOINT rclavicle
		{
			OFFSET 0.000000 39.863000 0.000000
			CHANNELS 3 Zrotation Xrotation Yrotation
			JOINT rhumerus
			{
				OFFSET -17.380600 4.958300 0.000000
				CHANNELS 3 Zrotation Xrotation Yrotation
				JOINT rradius
				{
					OFFSET 0.000000 -27.561300 0.000000
					CHANNELS 3 Zrotation Xrotation Yrotation
					JOINT rhand
					{
						OFFSET 0.000000 -26.933000 0.000000
						CHANNELS 3 Zrotation Xrotation Yrotation
						End Site
						{
						    OFFSET 0.000000 -5.000000 0.000000
						}
					}
				}
			}
		}
	}
}
MOTION
Frames:	13
Frame Time:	0.0333333
72.484200 87.097600 1.424300 -1.392978 -2.967377 -92.381216 -6.927897 -3.057233 -7.150886 0.000000 18.585908 0.000000 -0.000000 1.097020 8.445061 0.000000 -1.367807 -0.000000 -2.662658 -3.949648 -2.826293 -0.000000 21.741900 -0.000000 -0.000000 -1.078954 2.275641 -0.000000 -29.556082 -0.000000 -6.217309 2.459875 0.561871 14.254884 26.256937 -0.396956 2.762665 0.000000 5.877413 90.633227 -7.506876 65.939198 0.000000 -12.885750 -59.860125 17.829068 4.035571 -0.000000 -8.959562 -0.000000 -1.724535 -75.849973 3.772059 -67.482232 0.000000 -24.284790 44.614406 -17.858724 2.649849 -0.000000 
72.531300 87.056100 1.333800 -1.462350 -3.085150 -92.318726 -6.983445 -3.124766 -7.206736 -0.000000 18.790206 0.000000 0.000000 1.092436 8.390884 0.000000 -1.368577 0.000000 -2.693875 -4.138360 -2.703737 -0.000000 22.213117 -0.000000 0.000000 -1.358465 2.051254 0.000000 -29.555990 -0.000000 -6.196663 2.510343 0.586313 13.800162 26.455088 -0.262277 2.340809 -0.000000 6.186636 90.944447 -8.024396 66.185120 0.000000 -12.677409 -59.760322 18.099817 3.784825 -0.000000 -9.184647 0.000000 -2.368558 -75.824905 2.973886 -67.506498 -0.000001 -24.211590 45.189468 -18.878708 2.996681 0.000000 
72.591300 87.028300 1.279900 -1.486452 -3.172474 -92.314338 -7.036749 -3.228470 -7.176173 -0.000000 18.946447 -0.000000 -0.000000 1.064312 8.325024 -0.000000 -1.367847 -0.000000 -2.687927 -4.329788 -2.492070 0.000000 22.568215 -0.000000 0.000000 -1.560278 1.862088 -0.000000 -29.554515 -0.000000 -6.205132 2.389280 0.721665 13.621326 26.675123 -0.296232 2.363223 0.000000 5.896811 90.600514 -7.728551 65.765579 0.000001 -12.757394 -60.037929 18.240937 4.289916 -0.000000 -9.117070 -0.000000 -1.846187 -76.101736 3.783842 -67.318968 -0.000001 -24.253758 44.784585 -19.418657 3.181742 0.000000 
72.654000 87.013600 1.254600 -1.514694 -3.210737 -92.194255 -7.028418 -3.243817 -7.101449 0.000000 18.931166 -0.000000 -0.000000 1.125247 8.140796 -0.000000 -1.370496 -0.000000 -2.670677 -4.410958 -2.516023 0.000000 22.714091 -0.000000 -0.000000 -1.614150 1.557819 -0.000000 -29.554644 0.000000 -6.185369 2.370576 0.682531 13.497544 26.745992 -0.217623 2.522742 -0.000000 5.622345 89.974738 -7.327030 65.682341 -0.000001 -13.131317 -60.130512 18.102918 4.019505 -0.000000 -8.933642 0.000000 -1.613560 -76.349452 4.182364 -66.800451 0.000001 -24.492692 44.183253 -18.205115 2.764764 -0.000000 
72.694100 87.029100 1.276100 -1.504117 -3.286782 -92.082991 -7.075041 -3.141138 -7.042111 -0.000000 18.627245 -0.000000 -0.000000 1.306320 8.021773 0.000000 -1.373051 -0.000000 -2.712112 -4.413000 -2.388294 -0.000000 22.672457 -0.000000 -0.000000 -1.634974 1.402515 -0.000000 -29.553552 0.000000 -6.158051 2.395128 0.600675 13.431224 26.537292 -0.346566 2.464811 0.000000 5.781882 89.903415 -7.701883 66.986967 0.000000 -12.682415 -60.639773 17.913483 4.033543 0.000000 -8.788292 0.000000 -1.642821 -76.508614 4.116285 -66.822778 -0.000001 -24.602770 44.378810 -18.463325 2.851736 -0.000000 
72.760700 87.064200 1.334100 -1.448362 -3.325279 -91.862307 -7.130853 -3.101845 -7.255524 -0.000000 18.315766 -0.000000 0.000000 1.525732 7.990949 -0.000000 -1.375576 0.000000 -2.760973 -4.389898 -2.418650 -0.000000 22.504394 -0.000000 0.000000 -1.545256 1.173025 -0.000000 -29.553586 -0.000000 -6.143141 2.443562 0.441237 13.383924 26.537747 -0.094676 2.529907 -0.000000 5.961275 89.674809 -7.866235 67.160754 0.000000 -12.632539 -60.485606 17.908420 3.802406 -0.000000 -8.609520 0.000000 -1.855925 -76.644482 3.897124 -66.806092 -0.000001 -24.484997 44.161335 -19.094819 3.070160 0.000000 
72.847400 87.082000 1.405500 -1.336606 -3.360981 -91.702078 -7.210044 -3.173964 -7.465522 -0.000000 18.115486 -0.000000 0.000000 1.672751 8.050611 -0.000000 -1.375391 -0.000000 -2.795454 -4.481576 -2.350104 -0.000000 22.413609 0.000000 -0.000000 -1.474639 0.958307 -0.000000 -29.552715 -0.000000 -6.101405 2.398475 0.405607 13.423432 26.454902 -0.165719 2.602863 0.000000 5.835144 89.402833 -7.547356 66.880726 0.000001 -12.762846 -60.735325 17.418578 3.615823 -0.000000 -8.360063 -0.000000 -1.962194 -76.829839 3.966713 -66.245398 -0.000000 -24.511228 44.516454 -19.348526 3.153247 0.000000 
72.922600 87.085900 1.476000 -1.293679 -3.354422 -91.537116 -7.218961 -3.228553 -7.454224 -0.000000 17.999897 -0.000000 -0.000000 1.730573 7.878059 0.000000 -1.372575 0.000000 -2.803527 -4.512775 -2.418882 0.000000 22.322832 -0.000000 0.000000 -1.438443 0.816153 0.000000 -29.553497 -0.000000 -6.027867 2.530675 0.314474 13.474828 26.250115 -0.193855 2.759426 0.000000 5.917204 89.243275 -7.590963 67.406019 0.000000 -12.649520 -61.136155 17.728185 3.951284 0.000000 -8.458108 0.000000 -2.006579 -76.744227 3.801691 -66.841255 0.000001 -24.153729 44.155599 -19.354667 3.157911 0.000000 
72.988300 87.087700 1.569500 -1.225695 -3.453252 -91.466836 -7.331168 -3.204811 -7.422790 0.000000 17.720789 -0.000000 -0.000000 1.887559 7.711157 -0.000000 -1.376953 0.000000 -2.950710 -4.632497 -2.394622 -0.000000 22.366863 -0.000000 0.000000 -1.464418 0.772779 -0.000000 -29.553453 -0.000000 -6.020053 2.539850 0.385840 13.419712 26.211066 -0.181909 2.651074 -0.000000 5.727002 89.447914 -7.441098 67.659312 -0.000000 -12.618966 -60.972028 18.122224 4.217667 -0.000000 -8.645678 -0.000000 -1.991328 -76.483496 3.927945 -67.133499 0.000000 -24.164324 44.244653 -18.316000 2.800542 0.000000 
73.034800 87.084600 1.654700 -1.300208 -3.469666 -91.359220 -7.373657 -3.173006 -7.341807 -0.000000 17.716153 -0.000000 -0.000000 1.910347 7.511015 -0.000000 -1.377116 -0.000000 -3.047264 -4.589244 -2.556621 0.000000 22.410547 -0.000000 -0.000000 -1.503956 0.844024 0.000000 -29.552705 -0.000000 -5.927156 2.700317 0.377342 13.201962 26.274518 0.011223 2.637268 0.000000 5.543465 89.391421 -7.014493 66.873535 -0.000000 -13.070636 -60.297786 17.572905 4.059308 -0.000000 -8.635150 0.000000 -1.966080 -76.534923 3.972914 -66.753834 -0.000001 -24.443268 43.775189 -18.081008 2.722363 0.000000 
73.127200 87.077800 1.745600 -1.189653 -3.469343 -91.306601 -7.409146 -3.380893 -7.263543 0.000000 17.782611 -0.000000 0.000000 1.900474 7.356071 -0.000000 -1.373750 -0.000000 -3.075320 -4.789549 -2.442816 0.000000 22.487504 -0.000000 -0.000000 -1.527751 0.690171 -0.000000 -29.552486 0.000000 -5.813225 2.677720 0.420346 13.139847 26.146401 -0.001158 2.691037 0.000000 5.551107 89.529115 -7.198493 67.693735 -0.000001 -12.714903 -60.518049 18.308993 4.589271 0.000000 -8.874410 0.000000 -1.921460 -76.369874 3.873589 -67.446667 0.000001 -24.277166 44.031462 -18.783603 2.964680 0.000000 
73.178600 87.057600 1.848800 -1.247682 -3.492812 -91.156526 -7.517483 -3.445300 -7.395995 0.000000 17.946589 -0.000000 0.000000 1.860776 7.340397 -0.000000 -1.370292 -0.000000 -3.131797 -4.812382 -2.358357 -0.000000 22.652771 -0.000000 0.000000 -1.631766 0.486169 -0.000000 -29.551892 -0.000000 -5.761502 2.730623 0.314538 13.061258 26.115142 -0.002135 2.749720 0.000000 5.445090 89.445298 -6.945490 67.425725 -0.000001 -13.087734 -60.360857 17.993441 3.932753 0.000000 -8.844600 0.000000 -1.984359 -76.445590 3.660482 -67.398987 -0.000000 -24.402931 43.688714 -18.759261 2.955452 -0.000000 
73.215400 87.053900 1.916800 -1.259729 -3.433359 -90.950927 -7.502301 -3.499811 -7.489363 -0.000000 18.020816 -0.000000 -0.000000 1.841702 7.255551 0.000000 -1.371907 -0.000000 -3.069685 -4.727016 -2.280749 -0.000000 22.539873 -0.000000 0.000000 -1.667344 0.192845 0.000000 -29.551885 0.000000 -5.659793 2.825064 0.233043 13.133871 26.061467 -0.008402 2.574590 -0.000000 5.684679 89.855508 -7.413245 67.651566 0.000000 -13.028603 -59.781116 18.776013 4.235876 -0.000000 -8.965887 0.000000 -2.151903 -76.274330 3.245122 -68.155948 -0.000002 -24.479054 43.128600 -18.709286 2.940379 -0.000000 
